<mxfile host="app.diagrams.net" modified="2021-03-03T10:02:22.822Z" agent="5.0 (Windows NT 10.0; Win64; x64) AppleWebKit/537.36 (KHTML, like Gecko) Chrome/88.0.4324.182 Safari/537.36 Edg/88.0.705.81" etag="3CB2bWklrp_OwLqRpfDx" version="14.4.3" type="github">
  <diagram id="Udg6QOafCXX-rQGMyNGL" name="Page-1">
    <mxGraphModel dx="2370" dy="1270" grid="0" gridSize="10" guides="1" tooltips="1" connect="1" arrows="1" fold="1" page="0" pageScale="1" pageWidth="800" pageHeight="1000" background="#1A212B" math="0" shadow="0">
      <root>
        <mxCell id="0" />
        <mxCell id="1" parent="0" />
        <mxCell id="RBmb6j0EzxzfwEMcB2tm-140" value="Data Recipient&lt;br&gt;" style="outlineConnect=0;gradientColor=none;dashed=0;verticalLabelPosition=bottom;verticalAlign=top;align=center;html=1;fontSize=24;fontStyle=0;aspect=fixed;shape=mxgraph.aws4.resourceIcon;resIcon=mxgraph.aws4.mobile_client;fontColor=#FFFFFF;strokeColor=#FFFFFF;fillColor=#1A212B;" vertex="1" parent="1">
          <mxGeometry x="26.5" y="592" width="130" height="130" as="geometry" />
        </mxCell>
        <mxCell id="RBmb6j0EzxzfwEMcB2tm-42" value="Open Banking - Reference Architecture" style="text;html=1;resizable=0;points=[];autosize=1;align=left;verticalAlign=top;spacingTop=-4;fontSize=30;fontStyle=1;labelBackgroundColor=none;fontColor=#FFFFFF;" vertex="1" parent="1">
          <mxGeometry x="26.5" y="20" width="570" height="40" as="geometry" />
        </mxCell>
        <mxCell id="RBmb6j0EzxzfwEMcB2tm-43" value="Data Holder on AWS" style="text;html=1;resizable=0;points=[];autosize=1;align=left;verticalAlign=top;spacingTop=-4;fontSize=16;labelBackgroundColor=none;fontColor=#FFFFFF;" vertex="1" parent="1">
          <mxGeometry x="26.5" y="70" width="160" height="20" as="geometry" />
        </mxCell>
        <mxCell id="RBmb6j0EzxzfwEMcB2tm-44" value="" style="line;strokeWidth=2;html=1;fontSize=14;labelBackgroundColor=none;fontColor=#FAFAFA;strokeColor=#FCFCFC;" vertex="1" parent="1">
          <mxGeometry x="22.5" y="95" width="1060" height="10" as="geometry" />
        </mxCell>
        <mxCell id="RBmb6j0EzxzfwEMcB2tm-131" value="" style="shape=ext;double=1;rounded=1;whiteSpace=wrap;html=1;strokeColor=#FFFFFF;fillColor=#1A212B;" vertex="1" parent="1">
          <mxGeometry x="176.5" y="180" width="725" height="405" as="geometry" />
        </mxCell>
        <mxCell id="RBmb6j0EzxzfwEMcB2tm-133" value="" style="edgeStyle=orthogonalEdgeStyle;html=1;endArrow=block;elbow=vertical;startArrow=none;endFill=1;rounded=0;entryX=0;entryY=0.5;entryDx=0;entryDy=0;strokeColor=#FFFFFF;" edge="1" parent="1" source="RBmb6j0EzxzfwEMcB2tm-140" target="RBmb6j0EzxzfwEMcB2tm-138">
          <mxGeometry width="100" relative="1" as="geometry">
            <mxPoint x="68.5" y="533" as="sourcePoint" />
            <mxPoint x="161.5" y="377" as="targetPoint" />
            <Array as="points">
              <mxPoint x="79.5" y="500" />
            </Array>
          </mxGeometry>
        </mxCell>
        <mxCell id="RBmb6j0EzxzfwEMcB2tm-134" value="&lt;font style=&quot;font-size: 32px&quot;&gt;Core Banking Platform&lt;/font&gt;" style="rounded=1;whiteSpace=wrap;html=1;strokeColor=#FFFFFF;fontColor=#FFFFFF;fillColor=#1A212B;" vertex="1" parent="1">
          <mxGeometry x="221.5" y="225" width="430" height="200" as="geometry" />
        </mxCell>
        <mxCell id="RBmb6j0EzxzfwEMcB2tm-135" value="&lt;span style=&quot;font-size: 28px&quot;&gt;Realtime&lt;br&gt;Streaming&lt;br&gt;&lt;/span&gt;" style="rounded=1;whiteSpace=wrap;html=1;strokeColor=#FFFFFF;fontColor=#FFFFFF;fillColor=#1A212B;" vertex="1" parent="1">
          <mxGeometry x="671.5" y="230" width="200" height="95" as="geometry" />
        </mxCell>
        <mxCell id="RBmb6j0EzxzfwEMcB2tm-136" value="&lt;span style=&quot;font-size: 28px&quot;&gt;Batch&lt;br&gt;&lt;/span&gt;" style="rounded=1;whiteSpace=wrap;html=1;strokeColor=#FFFFFF;fontColor=#FFFFFF;fillColor=#1A212B;" vertex="1" parent="1">
          <mxGeometry x="671.5" y="338.5" width="200" height="95" as="geometry" />
        </mxCell>
        <mxCell id="RBmb6j0EzxzfwEMcB2tm-137" value="&lt;span style=&quot;font-size: 28px&quot;&gt;Data Store&lt;br&gt;&lt;/span&gt;" style="rounded=1;whiteSpace=wrap;html=1;strokeColor=#FFFFFF;fontColor=#FFFFFF;fillColor=#1A212B;" vertex="1" parent="1">
          <mxGeometry x="671.5" y="455" width="200" height="95" as="geometry" />
        </mxCell>
        <mxCell id="RBmb6j0EzxzfwEMcB2tm-148" style="edgeStyle=orthogonalEdgeStyle;rounded=0;orthogonalLoop=1;jettySize=auto;html=1;exitX=0;exitY=0.75;exitDx=0;exitDy=0;strokeColor=#FFFFFF;fontSize=20;fontColor=#FFFFFF;" edge="1" parent="1" source="RBmb6j0EzxzfwEMcB2tm-138" target="RBmb6j0EzxzfwEMcB2tm-140">
          <mxGeometry relative="1" as="geometry">
            <Array as="points">
              <mxPoint x="108.5" y="523" />
            </Array>
          </mxGeometry>
        </mxCell>
        <mxCell id="RBmb6j0EzxzfwEMcB2tm-138" value="&lt;span style=&quot;font-size: 20px;&quot;&gt;Authorization&lt;br style=&quot;font-size: 20px;&quot;&gt;/ Consent&lt;br style=&quot;font-size: 20px;&quot;&gt;&lt;/span&gt;" style="rounded=1;whiteSpace=wrap;html=1;strokeColor=#FFFFFF;fontColor=#FFFFFF;fontSize=20;fillColor=#1A212B;" vertex="1" parent="1">
          <mxGeometry x="221.5" y="455" width="160" height="90" as="geometry" />
        </mxCell>
        <mxCell id="RBmb6j0EzxzfwEMcB2tm-139" value="&lt;span style=&quot;font-size: 28px&quot;&gt;APIs&lt;br&gt;&lt;/span&gt;" style="rounded=1;whiteSpace=wrap;html=1;strokeColor=#FFFFFF;fontColor=#FFFFFF;fillColor=#1A212B;" vertex="1" parent="1">
          <mxGeometry x="401.5" y="455" width="250" height="95" as="geometry" />
        </mxCell>
        <mxCell id="RBmb6j0EzxzfwEMcB2tm-143" style="edgeStyle=orthogonalEdgeStyle;rounded=0;orthogonalLoop=1;jettySize=auto;html=1;entryX=0.25;entryY=1;entryDx=0;entryDy=0;strokeColor=#FFFFFF;fontSize=20;fontColor=#FFFFFF;" edge="1" parent="1" source="RBmb6j0EzxzfwEMcB2tm-140" target="RBmb6j0EzxzfwEMcB2tm-139">
          <mxGeometry relative="1" as="geometry">
            <Array as="points">
              <mxPoint x="464.5" y="632" />
            </Array>
          </mxGeometry>
        </mxCell>
        <mxCell id="RBmb6j0EzxzfwEMcB2tm-149" value="Banking APIs" style="edgeLabel;html=1;align=center;verticalAlign=middle;resizable=0;points=[];fontSize=20;fontColor=#FFFFFF;labelBackgroundColor=none;" vertex="1" connectable="0" parent="RBmb6j0EzxzfwEMcB2tm-143">
          <mxGeometry x="-0.6406" y="4" relative="1" as="geometry">
            <mxPoint x="70.5" y="-13" as="offset" />
          </mxGeometry>
        </mxCell>
        <mxCell id="RBmb6j0EzxzfwEMcB2tm-146" style="edgeStyle=orthogonalEdgeStyle;rounded=0;orthogonalLoop=1;jettySize=auto;html=1;strokeColor=#FFFFFF;fontSize=20;fontColor=#FFFFFF;" edge="1" parent="1" source="RBmb6j0EzxzfwEMcB2tm-140" target="RBmb6j0EzxzfwEMcB2tm-139">
          <mxGeometry relative="1" as="geometry">
            <Array as="points">
              <mxPoint x="526.5" y="675" />
            </Array>
          </mxGeometry>
        </mxCell>
        <mxCell id="RBmb6j0EzxzfwEMcB2tm-147" style="edgeStyle=orthogonalEdgeStyle;rounded=0;orthogonalLoop=1;jettySize=auto;html=1;entryX=0.75;entryY=1;entryDx=0;entryDy=0;strokeColor=#FFFFFF;fontSize=20;fontColor=#FFFFFF;" edge="1" parent="1" source="RBmb6j0EzxzfwEMcB2tm-140" target="RBmb6j0EzxzfwEMcB2tm-139">
          <mxGeometry relative="1" as="geometry">
            <Array as="points">
              <mxPoint x="589.5" y="717" />
            </Array>
          </mxGeometry>
        </mxCell>
        <mxCell id="RBmb6j0EzxzfwEMcB2tm-150" value="Common APIs" style="edgeLabel;html=1;align=center;verticalAlign=middle;resizable=0;points=[];fontSize=20;fontColor=#FFFFFF;labelBackgroundColor=none;" vertex="1" connectable="0" parent="1">
          <mxGeometry x="300.5" y="655" as="geometry" />
        </mxCell>
        <mxCell id="RBmb6j0EzxzfwEMcB2tm-151" value="Admin APIs" style="edgeLabel;html=1;align=center;verticalAlign=middle;resizable=0;points=[];fontSize=20;fontColor=#FFFFFF;labelBackgroundColor=none;" vertex="1" connectable="0" parent="1">
          <mxGeometry x="300.5" y="695" as="geometry" />
        </mxCell>
        <mxCell id="RBmb6j0EzxzfwEMcB2tm-154" value="" style="shape=image;verticalLabelPosition=bottom;verticalAlign=top;imageAspect=0;image=https://www.programmableweb.com/sites/default/files/styles/article_profile_150x150/public/CSIRO%20Data61%20Common%20API%20Image.jpg?itok=117Nf6Il;labelBackgroundColor=none;strokeColor=#FFFFFF;fillColor=#1A212B;fontSize=20;fontColor=#FFFFFF;" vertex="1" parent="1">
          <mxGeometry x="988" y="23" width="64" height="64" as="geometry" />
        </mxCell>
      </root>
    </mxGraphModel>
  </diagram>
</mxfile>
